<svg width="72" height="72" viewBox="0 0 72 72" fill="none" xmlns="http://www.w3.org/2000/svg">
<g clip-path="url(#clip0_4395_51181)">
<path d="M70.5343 36C70.5343 16.9618 55.0221 1.46571 35.9679 1.46571C16.9136 1.46571 1.40464 16.9618 1.40464 36C1.40464 55.0382 16.9168 70.5343 35.9711 70.5343C55.0254 70.5343 70.5375 55.0382 70.5375 36H70.5343ZM35.9711 0C55.8804 0 72 16.1711 72 36C72 55.8289 55.8771 72 35.9711 72C16.065 72 0 55.8289 0 36C0 16.1711 16.1229 0 35.9711 0Z" fill="white"/>
<path d="M9.71033 36C9.71033 21.4779 21.4971 9.70071 35.971 9.70071C50.445 9.70071 62.2928 21.4779 62.2928 36C62.2928 50.5221 50.506 62.2382 35.971 62.2382C21.436 62.2382 9.71033 50.4611 9.71033 36ZM35.971 10.8C22.1078 10.8 10.8128 22.0886 10.8128 36C10.8128 49.9114 22.111 61.1389 35.971 61.1389C49.831 61.1389 61.1935 49.8504 61.1935 36C61.1935 22.1496 49.8953 10.8 35.971 10.8Z" fill="white"/>
<path d="M41.6507 20.745V22.0886H42.6279C44.3989 22.0886 45.8036 23.4932 45.8036 25.2V38.9893C45.8036 39.1114 45.6204 39.2336 45.4982 39.1114L30.1693 20.745H20.7643V22.0886H21.1918C21.7414 22.0886 22.2911 22.3329 22.6575 22.7604L23.2071 23.3711L24.6118 25.0811V46.4368C24.6118 48.0246 23.3904 49.2429 21.8025 49.2429H20.7643V50.4032H30.8411V49.2429H30.0471C28.215 49.2429 26.6882 47.7803 26.6882 45.8871V27.8261C26.6882 27.7039 26.8104 27.7039 26.8714 27.765L46.4754 51.1971H47.7579V24.8979C47.7579 23.31 49.0404 22.0918 50.5671 22.0918H51.2389V20.7482H41.6507V20.745Z" fill="white"/>
</g>
<defs>
<clipPath id="clip0_4395_51181">
<rect width="72" height="72" fill="white"/>
</clipPath>
</defs>
</svg>
